<svg width="20" height="20" viewBox="0 0 20 20" fill="none" xmlns="http://www.w3.org/2000/svg">
<g id="solar:crown-bold">
<path id="Vector" d="M16.4062 11.7443L16.5595 10.3235C16.6403 9.56515 16.6945 9.06515 16.652 8.75015H16.667C16.9522 8.75007 17.2289 8.65244 17.451 8.47346C17.6731 8.29449 17.8273 8.04493 17.888 7.76623C17.9487 7.48752 17.9123 7.19643 17.7848 6.94129C17.6572 6.68614 17.4463 6.48228 17.1869 6.36356C16.9276 6.24484 16.6354 6.21839 16.3589 6.28862C16.0825 6.35884 15.8383 6.5215 15.6671 6.7496C15.4958 6.9777 15.4077 7.25752 15.4174 7.54259C15.4271 7.82767 15.534 8.10086 15.7203 8.31681C15.4487 8.48431 15.0937 8.83848 14.5595 9.37098C14.147 9.78181 13.9412 9.98681 13.7112 10.0185C13.5837 10.0361 13.4539 10.0179 13.3362 9.96598C13.1245 9.87265 12.9828 9.61931 12.7003 9.11181L11.2087 6.43765C11.0345 6.12515 10.8887 5.86265 10.757 5.65265C11.0905 5.48269 11.3572 5.20537 11.5139 4.8654C11.6706 4.52542 11.7083 4.14258 11.6209 3.77856C11.5335 3.41454 11.3261 3.09054 11.0321 2.85878C10.7381 2.62701 10.3747 2.50098 10.0003 2.50098C9.62596 2.50098 9.2625 2.62701 8.9685 2.85878C8.67451 3.09054 8.4671 3.41454 8.37971 3.77856C8.29231 4.14258 8.33002 4.52542 8.48675 4.8654C8.64348 5.20537 8.9101 5.48269 9.24366 5.65265C9.11199 5.86348 8.96616 6.12515 8.79116 6.43765L7.30032 9.11181C7.01699 9.61931 6.87532 9.87265 6.66366 9.96598C6.54594 10.0179 6.41611 10.0361 6.28866 10.0185C6.05949 9.98681 5.85366 9.78181 5.44116 9.37098C4.90699 8.83848 4.55199 8.48431 4.28032 8.31681C4.46668 8.10086 4.57358 7.82767 4.58327 7.54259C4.59295 7.25752 4.50485 6.9777 4.33358 6.7496C4.16231 6.5215 3.91817 6.35884 3.64171 6.28862C3.36525 6.21839 3.07308 6.24484 2.81372 6.36356C2.55436 6.48228 2.3434 6.68614 2.21587 6.94129C2.08834 7.19643 2.05192 7.48752 2.11263 7.76623C2.17335 8.04493 2.32757 8.29449 2.54967 8.47346C2.77178 8.65244 3.04841 8.75007 3.33366 8.75015H3.34866C3.30616 9.06515 3.36032 9.56598 3.44116 10.3235L3.59449 11.7443C3.67949 12.5326 3.74949 13.2835 3.83616 13.9585H16.1645C16.2512 13.2835 16.3212 12.5335 16.4062 11.7443ZM9.09366 17.5001H10.907C13.2703 17.5001 14.452 17.5001 15.2403 16.7943C15.5845 16.486 15.802 15.931 15.9595 15.2085H4.04116C4.19866 15.931 4.41616 16.4868 4.76032 16.7943C5.54866 17.5001 6.73032 17.5001 9.09366 17.5001Z" fill="black"/>
</g>
</svg>
