<svg width="160" height="138" viewBox="0 0 160 138" fill="none" xmlns="http://www.w3.org/2000/svg">
<g clip-path="url(#clip0_1718_386367)">
<path opacity="0.33" d="M157.288 84.9296C158.323 104.005 121.029 142.792 75.0619 128.436C53.6829 121.758 55.4938 110.675 39.2374 96.0676C29.5478 87.3616 15.6255 80.7784 11.7532 68.1236C8.40794 57.2007 10.4594 45.4602 16.2586 37.8235C29.3013 20.6495 55.6321 8.88946 81.5761 35.9486C107.52 63.0078 154.612 35.7329 157.288 84.9296Z" fill="#F9F9F9"/>
<path opacity="0.33" d="M147.064 42.8804C143.437 49.3543 135.493 50.2438 122.765 49.0137C113.193 48.0868 104.464 47.3695 94.8909 42.1502C88.1908 38.4995 82.8867 33.5606 79.0156 28.7637C74.8209 23.567 68.9659 17.6359 71.8361 11.7438C75.7806 3.64959 98.5916 -3.16716 120.742 7.9808C145.074 20.2305 150.613 36.553 147.064 42.8804Z" fill="#F9F9F9"/>
<path opacity="0.33" d="M54.7355 122.058C46.2847 110.235 37.6298 97.6696 26.2992 91.4808C14.6116 85.0937 12.4564 89.03 11.6473 95.2882C10.8381 101.546 14.4441 116.374 30.3942 124.81C46.3484 133.249 62.6428 133.123 54.7355 122.058Z" fill="#F9F9F9"/>
<path d="M127.536 5.55396H40.9762C37.7473 5.55396 35.1299 8.17142 35.1299 11.4002V37.3872C35.1299 40.616 37.7473 43.2335 40.9762 43.2335H127.536C130.765 43.2335 133.383 40.616 133.383 37.3872V11.4002C133.383 8.17142 130.765 5.55396 127.536 5.55396Z" fill="white" stroke="#E1E4E5" stroke-width="1.16925"/>
<path d="M121.063 17.1262H65.5897C64.3679 17.1262 63.3774 18.1167 63.3774 19.3384C63.3774 20.5602 64.3679 21.5507 65.5897 21.5507H121.063C122.285 21.5507 123.276 20.5602 123.276 19.3384C123.276 18.1167 122.285 17.1262 121.063 17.1262Z" fill="#E1E4E5"/>
<path d="M99.9628 26.9954H65.5897C64.3679 26.9954 63.3774 27.9858 63.3774 29.2076C63.3774 30.4294 64.3679 31.4198 65.5897 31.4198H99.9628C101.185 31.4198 102.175 30.4294 102.175 29.2076C102.175 27.9858 101.185 26.9954 99.9628 26.9954Z" fill="#E1E4E5"/>
<path fill-rule="evenodd" clip-rule="evenodd" d="M50.7013 33.8925C45.4935 33.8925 41.271 29.6107 41.271 24.3292C41.271 19.048 45.4935 14.7659 50.7013 14.7659C55.9095 14.7659 60.1319 19.048 60.1319 24.3292C60.1319 29.6107 55.9095 33.8925 50.7013 33.8925Z" fill="#0078AD"/>
<path d="M54.0216 22.7358L50.0377 26.9864L47.646 24.4365" stroke="white" stroke-width="1.04297" stroke-linecap="round" stroke-linejoin="round"/>
<path d="M127.536 50.95H40.9762C37.7473 50.95 35.1299 53.5674 35.1299 56.7962V82.7832C35.1299 86.012 37.7473 88.6295 40.9762 88.6295H127.536C130.765 88.6295 133.383 86.012 133.383 82.7832V56.7962C133.383 53.5674 130.765 50.95 127.536 50.95Z" fill="white" stroke="#E1E4E5" stroke-width="1.16925"/>
<path d="M121.063 62.52H65.5897C64.3679 62.52 63.3774 63.5105 63.3774 64.7322C63.3774 65.954 64.3679 66.9445 65.5897 66.9445H121.063C122.285 66.9445 123.276 65.954 123.276 64.7322C123.276 63.5105 122.285 62.52 121.063 62.52Z" fill="#E1E4E5"/>
<path d="M99.9628 72.3914H65.5897C64.3679 72.3914 63.3774 73.3818 63.3774 74.6036C63.3774 75.8254 64.3679 76.8158 65.5897 76.8158H99.9628C101.185 76.8158 102.175 75.8254 102.175 74.6036C102.175 73.3818 101.185 72.3914 99.9628 72.3914Z" fill="#E1E4E5"/>
<path fill-rule="evenodd" clip-rule="evenodd" d="M50.7013 79.2888C45.4935 79.2888 41.271 75.0067 41.271 69.7254C41.271 64.4439 45.4935 60.1621 50.7013 60.1621C55.9095 60.1621 60.1319 64.4439 60.1319 69.7254C60.1319 75.0067 55.9095 79.2888 50.7013 79.2888Z" fill="#0078AD"/>
<path d="M54.0216 68.1318L50.0377 72.3821L47.646 69.8322" stroke="white" stroke-width="1.04297" stroke-linecap="round" stroke-linejoin="round"/>
<path d="M127.536 96.3462H40.9762C37.7473 96.3462 35.1299 98.9637 35.1299 102.192V128.179C35.1299 131.408 37.7473 134.026 40.9762 134.026H127.536C130.765 134.026 133.383 131.408 133.383 128.179V102.192C133.383 98.9637 130.765 96.3462 127.536 96.3462Z" fill="white" stroke="#E1E4E5" stroke-width="1.16925"/>
<path d="M121.063 107.916H65.5897C64.3679 107.916 63.3774 108.907 63.3774 110.128C63.3774 111.35 64.3679 112.341 65.5897 112.341H121.063C122.285 112.341 123.276 111.35 123.276 110.128C123.276 108.907 122.285 107.916 121.063 107.916Z" fill="#E1E4E5"/>
<path d="M99.9628 117.785H65.5897C64.3679 117.785 63.3774 118.776 63.3774 119.997C63.3774 121.219 64.3679 122.21 65.5897 122.21H99.9628C101.185 122.21 102.175 121.219 102.175 119.997C102.175 118.776 101.185 117.785 99.9628 117.785Z" fill="#E1E4E5"/>
<path fill-rule="evenodd" clip-rule="evenodd" d="M50.7013 124.683C45.4935 124.683 41.271 120.4 41.271 115.119C41.271 109.838 45.4935 105.556 50.7013 105.556C55.9095 105.556 60.1319 109.838 60.1319 115.119C60.1319 120.4 55.9095 124.683 50.7013 124.683Z" fill="#0078AD"/>
<path d="M54.0216 113.526L50.0377 117.776L47.646 115.226" stroke="white" stroke-width="1.04297" stroke-linecap="round" stroke-linejoin="round"/>
<path d="M140.881 33.9734C140.736 34.515 141.058 35.0717 141.599 35.2168C142.141 35.3619 142.698 35.0405 142.843 34.4989C142.988 33.9574 142.666 33.4007 142.125 33.2556C141.583 33.1104 141.027 33.4318 140.881 33.9734Z" fill="#E1E4E5"/>
<path d="M146.749 53.5033C147.607 53.5033 148.303 52.8074 148.303 51.9488C148.303 51.0903 147.607 50.3943 146.749 50.3943C145.89 50.3943 145.194 51.0903 145.194 51.9488C145.194 52.8074 145.89 53.5033 146.749 53.5033Z" fill="#0078AD"/>
<path d="M23.5546 102.951C22.2667 102.951 21.2226 103.995 21.2226 105.283C21.2226 106.571 22.2667 107.615 23.5546 107.615C24.8426 107.615 25.8867 106.571 25.8867 105.283C25.8867 103.995 24.8426 102.951 23.5546 102.951Z" fill="#0078AD"/>
<path d="M18.1658 55.7285C17.2625 55.7285 16.5303 54.9963 16.5303 54.093C16.5303 53.1898 17.2625 52.4575 18.1658 52.4575C19.069 52.4575 19.8013 53.1898 19.8013 54.093C19.8013 54.9963 19.069 55.7285 18.1658 55.7285Z" fill="#0078AD"/>
<path d="M5.21023 84.9167C3.57888 84.9167 2.25641 83.5942 2.25641 81.9629C2.25641 80.3315 3.57888 79.009 5.21023 79.009C6.84159 79.009 8.16406 80.3315 8.16406 81.9629C8.16406 83.5942 6.84159 84.9167 5.21023 84.9167Z" fill="#E1E4E5"/>
<path d="M149.791 105.75C148.159 105.75 146.837 104.428 146.837 102.797C146.837 101.165 148.159 99.8428 149.791 99.8428C151.422 99.8428 152.745 101.165 152.745 102.797C152.745 104.428 151.422 105.75 149.791 105.75Z" fill="#E1E4E5"/>
<path d="M24.7018 70.5115C24.9095 71.2867 24.4495 72.0835 23.6743 72.2912C22.8991 72.4989 22.1023 72.0389 21.8946 71.2637C21.6869 70.4885 22.147 69.6917 22.9221 69.484C23.6973 69.2763 24.4941 69.7363 24.7018 70.5115Z" fill="#E1E4E5"/>
<path d="M141.625 72.9505C141.833 73.7256 141.373 74.5224 140.598 74.7301C139.822 74.9378 139.026 74.4778 138.818 73.7027C138.61 72.9275 139.07 72.1307 139.845 71.923C140.621 71.7153 141.417 72.1753 141.625 72.9505Z" fill="#E1E4E5"/>
<path d="M25.0059 39.9677C23.9383 39.9677 23.0728 39.1022 23.0728 38.0346C23.0728 36.967 23.9383 36.1016 25.0059 36.1016C26.0735 36.1016 26.939 36.967 26.939 38.0346C26.939 39.1022 26.0735 39.9677 25.0059 39.9677Z" fill="#E1E4E5"/>
</g>
<defs>
<clipPath id="clip0_1718_386367">
<rect width="159.896" height="137.095" fill="white" transform="translate(0.0522461)"/>
</clipPath>
</defs>
</svg>
