<svg width="18" height="19" viewBox="0 0 18 19" fill="none" xmlns="http://www.w3.org/2000/svg">
<path d="M17.12 1.88C16.5579 1.31723 15.7954 1.0007 15 1H14C14 0.734784 13.8946 0.48043 13.7071 0.292893C13.5196 0.105357 13.2652 0 13 0C12.7348 0 12.4804 0.105357 12.2929 0.292893C12.1054 0.48043 12 0.734784 12 1H6C6 0.734784 5.89464 0.48043 5.70711 0.292893C5.51957 0.105357 5.26522 0 5 0C4.73478 0 4.48043 0.105357 4.29289 0.292893C4.10536 0.48043 4 0.734784 4 1H3C2.20435 1 1.44129 1.31607 0.87868 1.87868C0.316071 2.44129 0 3.20435 0 4V16C0 16.7956 0.316071 17.5587 0.87868 18.1213C1.44129 18.6839 2.20435 19 3 19H15C15.7956 19 16.5587 18.6839 17.1213 18.1213C17.6839 17.5587 18 16.7956 18 16V4C17.9993 3.20462 17.6828 2.44207 17.12 1.88ZM5 15C4.80222 15 4.60888 14.9414 4.44443 14.8315C4.27998 14.7216 4.15181 14.5654 4.07612 14.3827C4.00043 14.2 3.98063 13.9989 4.01921 13.8049C4.0578 13.6109 4.15304 13.4327 4.29289 13.2929C4.43275 13.153 4.61093 13.0578 4.80491 13.0192C4.99889 12.9806 5.19996 13.0004 5.38268 13.0761C5.56541 13.1518 5.72159 13.28 5.83147 13.4444C5.94135 13.6089 6 13.8022 6 14C6 14.2652 5.89464 14.5196 5.70711 14.7071C5.51957 14.8946 5.26522 15 5 15ZM5 11C4.80222 11 4.60888 10.9414 4.44443 10.8315C4.27998 10.7216 4.15181 10.5654 4.07612 10.3827C4.00043 10.2 3.98063 9.99889 4.01921 9.80491C4.0578 9.61093 4.15304 9.43275 4.29289 9.29289C4.43275 9.15304 4.61093 9.0578 4.80491 9.01921C4.99889 8.98063 5.19996 9.00043 5.38268 9.07612C5.56541 9.15181 5.72159 9.27998 5.83147 9.44443C5.94135 9.60888 6 9.80222 6 10C6 10.2652 5.89464 10.5196 5.70711 10.7071C5.51957 10.8946 5.26522 11 5 11ZM9 15C8.80222 15 8.60888 14.9414 8.44443 14.8315C8.27998 14.7216 8.15181 14.5654 8.07612 14.3827C8.00043 14.2 7.98063 13.9989 8.01921 13.8049C8.0578 13.6109 8.15304 13.4327 8.29289 13.2929C8.43275 13.153 8.61093 13.0578 8.80491 13.0192C8.99889 12.9806 9.19996 13.0004 9.38268 13.0761C9.56541 13.1518 9.72159 13.28 9.83147 13.4444C9.94135 13.6089 10 13.8022 10 14C10 14.2652 9.89464 14.5196 9.70711 14.7071C9.51957 14.8946 9.26522 15 9 15ZM9 11C8.80222 11 8.60888 10.9414 8.44443 10.8315C8.27998 10.7216 8.15181 10.5654 8.07612 10.3827C8.00043 10.2 7.98063 9.99889 8.01921 9.80491C8.0578 9.61093 8.15304 9.43275 8.29289 9.29289C8.43275 9.15304 8.61093 9.0578 8.80491 9.01921C8.99889 8.98063 9.19996 9.00043 9.38268 9.07612C9.56541 9.15181 9.72159 9.27998 9.83147 9.44443C9.94135 9.60888 10 9.80222 10 10C10 10.2652 9.89464 10.5196 9.70711 10.7071C9.51957 10.8946 9.26522 11 9 11ZM13 11C12.8022 11 12.6089 10.9414 12.4444 10.8315C12.28 10.7216 12.1518 10.5654 12.0761 10.3827C12.0004 10.2 11.9806 9.99889 12.0192 9.80491C12.0578 9.61093 12.153 9.43275 12.2929 9.29289C12.4327 9.15304 12.6109 9.0578 12.8049 9.01921C12.9989 8.98063 13.2 9.00043 13.3827 9.07612C13.5654 9.15181 13.7216 9.27998 13.8315 9.44443C13.9414 9.60888 14 9.80222 14 10C14 10.2652 13.8946 10.5196 13.7071 10.7071C13.5196 10.8946 13.2652 11 13 11ZM16 5H2V4C2 3.73478 2.10536 3.48043 2.29289 3.29289C2.48043 3.10536 2.73478 3 3 3H4C4 3.26522 4.10536 3.51957 4.29289 3.70711C4.48043 3.89464 4.73478 4 5 4C5.26522 4 5.51957 3.89464 5.70711 3.70711C5.89464 3.51957 6 3.26522 6 3H12C12 3.26522 12.1054 3.51957 12.2929 3.70711C12.4804 3.89464 12.7348 4 13 4C13.2652 4 13.5196 3.89464 13.7071 3.70711C13.8946 3.51957 14 3.26522 14 3H15C15.2652 3 15.5196 3.10536 15.7071 3.29289C15.8946 3.48043 16 3.73478 16 4V5Z" fill="#F06D0F"/>
</svg>
