<svg width="20" height="21" viewBox="0 0 20 21" fill="none" xmlns="http://www.w3.org/2000/svg">
<path d="M15.6499 16C15.5474 15.9706 15.4382 15.974 15.3378 16.0099C15.2373 16.0458 15.1506 16.1123 15.0899 16.2L14.0899 17.64C14.034 17.7227 14.0042 17.8202 14.0042 17.92C14.0042 18.0198 14.034 18.1173 14.0899 18.2L15.0899 19.75C15.1337 19.8217 15.1955 19.8807 15.2692 19.9211C15.3429 19.9615 15.4259 19.9818 15.5099 19.98H15.6499C15.7519 19.9479 15.841 19.884 15.9039 19.7976C15.9669 19.7112 16.0006 19.6069 15.9999 19.5V16.5C16.005 16.3897 15.9734 16.2808 15.9101 16.1904C15.8468 16.0999 15.7553 16.033 15.6499 16ZM19.9999 11C19.9981 9.68603 19.74 8.38506 19.2399 7.16998C18.225 4.72081 16.2791 2.77489 13.8299 1.75998C11.6923 0.873524 9.31346 0.755868 7.09882 1.42707C4.88418 2.09827 2.97088 3.51678 1.68506 5.44079C0.399242 7.36479 -0.179492 9.6752 0.0475135 11.9782C0.274519 14.2811 1.29321 16.4341 2.92993 18.07C4.18842 19.3351 5.76457 20.2378 7.49263 20.683C9.22069 21.1282 11.0368 21.0995 12.7499 20.6C12.2623 19.8202 12.0025 18.9196 11.9999 18C11.9999 16.6739 12.5267 15.4021 13.4644 14.4644C14.4021 13.5268 15.6739 13 16.9999 13C17.9197 13.0015 18.8206 13.2614 19.5999 13.75C19.8635 12.857 19.9982 11.931 19.9999 11ZM10.9999 12C10.9999 12.2652 10.8946 12.5196 10.707 12.7071C10.5195 12.8946 10.2652 13 9.99994 13H6.99993C6.73472 13 6.48036 12.8946 6.29283 12.7071C6.10529 12.5196 5.99993 12.2652 5.99993 12C5.99993 11.7348 6.10529 11.4804 6.29283 11.2929C6.48036 11.1053 6.73472 11 6.99993 11H8.99994V7.99998C8.99994 7.73477 9.10529 7.48041 9.29283 7.29288C9.48036 7.10534 9.73472 6.99998 9.99994 6.99998C10.2652 6.99998 10.5195 7.10534 10.707 7.29288C10.8946 7.48041 10.9999 7.73477 10.9999 7.99998V12ZM18.9199 16.23C18.8617 16.1393 18.7757 16.0699 18.6748 16.032C18.5739 15.9942 18.4634 15.99 18.3599 16.02C18.2561 16.0503 18.1648 16.1134 18.0999 16.2C18.035 16.2865 17.9999 16.3918 17.9999 16.5V19.5C17.9993 19.6069 18.0329 19.7112 18.0959 19.7976C18.1589 19.884 18.2479 19.9479 18.3499 19.98H18.4999C18.5812 19.9802 18.6611 19.9602 18.7327 19.9218C18.8043 19.8833 18.8652 19.8278 18.9099 19.76L19.9099 18.32C19.9658 18.2373 19.9957 18.1398 19.9957 18.04C19.9957 17.9402 19.9658 17.8427 19.9099 17.76L18.9199 16.23Z" fill="#F50031"/>
</svg>
