<svg width="18" height="19" viewBox="0 0 18 19" fill="none" xmlns="http://www.w3.org/2000/svg">
<path d="M15 1H14C14 0.734784 13.8946 0.48043 13.7071 0.292893C13.5196 0.105357 13.2652 0 13 0C12.7348 0 12.4804 0.105357 12.2929 0.292893C12.1054 0.48043 12 0.734784 12 1H6C6 0.734784 5.89464 0.48043 5.70711 0.292893C5.51957 0.105357 5.26522 0 5 0C4.73478 0 4.48043 0.105357 4.29289 0.292893C4.10536 0.48043 4 0.734784 4 1H3C2.20435 1 1.44129 1.31607 0.87868 1.87868C0.316071 2.44129 0 3.20435 0 4V16C0 16.7956 0.316071 17.5587 0.87868 18.1213C1.44129 18.6839 2.20435 19 3 19H15C15.7956 19 16.5587 18.6839 17.1213 18.1213C17.6839 17.5587 18 16.7956 18 16V4C18 3.20435 17.6839 2.44129 17.1213 1.87868C16.5587 1.31607 15.7956 1 15 1ZM10.5 15C10.5 15.2652 10.3946 15.5196 10.2071 15.7071C10.0196 15.8946 9.76522 16 9.5 16C9.23478 16 8.98043 15.8946 8.79289 15.7071C8.60536 15.5196 8.5 15.2652 8.5 15V11.41L8.21 11.71C8.0217 11.8983 7.7663 12.0041 7.5 12.0041C7.2337 12.0041 6.9783 11.8983 6.79 11.71C6.6017 11.5217 6.49591 11.2663 6.49591 11C6.49591 10.7337 6.6017 10.4783 6.79 10.29L8.79 8.29C8.93062 8.15124 9.1092 8.05725 9.30319 8.01987C9.49718 7.9825 9.69789 8.00342 9.88 8.08C10.0626 8.15502 10.2189 8.28242 10.3293 8.44614C10.4396 8.60986 10.499 8.80257 10.5 9V15ZM16 5H2V4C2 3.73478 2.10536 3.48043 2.29289 3.29289C2.48043 3.10536 2.73478 3 3 3H4C4 3.26522 4.10536 3.51957 4.29289 3.70711C4.48043 3.89464 4.73478 4 5 4C5.26522 4 5.51957 3.89464 5.70711 3.70711C5.89464 3.51957 6 3.26522 6 3H12C12 3.26522 12.1054 3.51957 12.2929 3.70711C12.4804 3.89464 12.7348 4 13 4C13.2652 4 13.5196 3.89464 13.7071 3.70711C13.8946 3.51957 14 3.26522 14 3H15C15.2652 3 15.5196 3.10536 15.7071 3.29289C15.8946 3.48043 16 3.73478 16 4V5Z" fill="#F7AB20"/>
</svg>
