<svg width="36" height="36" viewBox="0 0 36 36" fill="none" xmlns="http://www.w3.org/2000/svg">
<path d="M36 18C36 27.9401 27.9439 36 18 36C8.0561 36 0 27.9401 0 18C0 8.05987 8.05987 0 18 0C27.9401 0 36 8.05987 36 18Z" fill="#0C5273"/>
<path fill-rule="evenodd" clip-rule="evenodd" d="M14.6237 12.3741H21.3761V11.2474C21.3761 10.9497 21.2555 10.6634 21.0445 10.4523C20.8335 10.2376 20.5471 10.1208 20.2494 10.1208H15.7504C15.4527 10.1208 15.1663 10.2413 14.9553 10.4523C14.7405 10.6634 14.6237 10.9497 14.6237 11.2474V12.3741ZM23.6218 12.3741H24.7485C25.6453 12.3741 26.5044 12.732 27.1337 13.3651C27.7667 13.9981 28.1209 14.8534 28.1209 15.7502V24.7446C28.1209 25.6376 27.7667 26.4967 27.1337 27.1298C26.5006 27.7628 25.6453 28.117 24.7485 28.117H11.2513C10.3583 28.117 9.49917 27.7628 8.86614 27.1298C8.2331 26.4967 7.87891 25.6414 7.87891 24.7446V15.7465C7.87891 14.8534 8.2331 13.9943 8.86614 13.3613C9.49917 12.7283 10.3545 12.3741 11.2513 12.3741H12.378V11.2474C12.378 10.3544 12.7322 9.49526 13.3652 8.86223C13.9982 8.2292 14.8536 7.875 15.7504 7.875H20.2494C21.1425 7.875 22.0016 8.2292 22.6346 8.86223C23.2676 9.49526 23.6218 10.3506 23.6218 11.2474V12.3741ZM17.6682 23.3015L23.2939 17.6795C23.5049 17.4648 23.6255 17.1784 23.6255 16.877C23.6255 16.5793 23.5049 16.2891 23.2939 16.0781C23.0829 15.8671 22.7928 15.7465 22.4951 15.7465C22.1974 15.7465 21.9073 15.8671 21.6962 16.0781L16.8694 20.9163L15.4187 19.4543C15.3169 19.3488 15.1888 19.2659 15.0532 19.2094C14.9137 19.1529 14.7668 19.1227 14.6198 19.1227C14.4691 19.1227 14.3222 19.1529 14.1865 19.2094C14.0509 19.2659 13.9265 19.3488 13.821 19.4543C13.7155 19.556 13.6326 19.6842 13.5761 19.8198C13.5196 19.9592 13.4894 20.1062 13.4894 20.2531C13.4894 20.4039 13.5196 20.5508 13.5761 20.6865C13.6326 20.8221 13.7155 20.9465 13.821 21.052L16.0705 23.3015C16.176 23.407 16.3004 23.4899 16.436 23.5464C16.5717 23.6029 16.7224 23.6331 16.8694 23.6331C17.0201 23.6331 17.167 23.6029 17.3027 23.5464C17.4383 23.4899 17.5627 23.407 17.6682 23.3015Z" fill="white"/>
</svg>
