<svg width="24" height="24" viewBox="0 0 24 24" fill="none" xmlns="http://www.w3.org/2000/svg">
<path d="M8 11C9.93 11 11.5 9.43 11.5 7.5C11.5 5.57 9.93 4 8 4C6.07 4 4.5 5.57 4.5 7.5C4.5 9.43 6.07 11 8 11ZM8 12C4.69 12 2 14.69 2 18C2 19.1 2.9 20 4 20H12C13.1 20 14 19.1 14 18C14 14.69 11.31 12 8 12Z" fill="#141414"/>
<path d="M21.5129 10.584L20.9171 10.2423V9.75898L21.5129 9.41732C21.704 9.30667 21.8433 9.12475 21.9003 8.91148C21.9573 8.69822 21.9274 8.47104 21.8171 8.27982L21.4004 7.55482C21.2898 7.36379 21.1079 7.22447 20.8946 7.16745C20.6813 7.11042 20.4541 7.14034 20.2629 7.25065L19.7713 7.53398L19.6671 7.59648L19.2504 7.35482V6.66732C19.2504 6.4463 19.1626 6.23434 19.0063 6.07806C18.8501 5.92178 18.6381 5.83398 18.4171 5.83398H17.5838C17.3627 5.83398 17.1508 5.92178 16.9945 6.07806C16.8382 6.23434 16.7504 6.4463 16.7504 6.66732V7.35482L16.6463 7.41315L16.3338 7.59648L16.2296 7.53398L15.7379 7.25065C15.5467 7.14034 15.3195 7.11042 15.1063 7.16745C14.893 7.22447 14.7111 7.36379 14.6004 7.55482L14.1838 8.27982C14.0735 8.47104 14.0435 8.69822 14.1006 8.91148C14.1576 9.12475 14.2969 9.30667 14.4879 9.41732L15.0838 9.75898V10.2423L14.4879 10.584C14.2969 10.6946 14.1576 10.8766 14.1006 11.0898C14.0435 11.3031 14.0735 11.5303 14.1838 11.7215L14.6004 12.4465C14.7111 12.6375 14.893 12.7768 15.1063 12.8339C15.3195 12.8909 15.5467 12.861 15.7379 12.7507L16.3338 12.4048L16.7504 12.6465V13.334C16.7504 13.555 16.8382 13.767 16.9945 13.9232C17.1508 14.0795 17.3627 14.1673 17.5838 14.1673H18.4171C18.6381 14.1673 18.8501 14.0795 19.0063 13.9232C19.1626 13.767 19.2504 13.555 19.2504 13.334V12.6465L19.6671 12.4048L20.2629 12.7507C20.4541 12.861 20.6813 12.8909 20.8946 12.8339C21.1079 12.7768 21.2898 12.6375 21.4004 12.4465L21.8171 11.7215C21.9274 11.5303 21.9573 11.3031 21.9003 11.0898C21.8433 10.8766 21.704 10.6946 21.5129 10.584V10.584ZM18.0004 11.2507C17.7532 11.2507 17.5115 11.1773 17.306 11.04C17.1004 10.9026 16.9402 10.7074 16.8456 10.479C16.751 10.2506 16.7262 9.99926 16.7744 9.75679C16.8227 9.51431 16.9417 9.29158 17.1165 9.11677C17.2914 8.94195 17.5141 8.8229 17.7566 8.77467C17.999 8.72644 18.2504 8.75119 18.4788 8.8458C18.7072 8.94041 18.9024 9.10063 19.0398 9.30619C19.1771 9.51175 19.2504 9.75342 19.2504 10.0007C19.2504 10.3322 19.1187 10.6501 18.8843 10.8845C18.6499 11.119 18.3319 11.2507 18.0004 11.2507Z" fill="black"/>
</svg>
