<svg width="24" height="24" viewBox="0 0 24 24" fill="none" xmlns="http://www.w3.org/2000/svg">
<path d="M20.49 19.0005L15.33 13.8505L19.12 10.0605C19.3295 9.85071 19.4722 9.58355 19.5299 9.29275C19.5877 9.00195 19.558 8.70056 19.4446 8.42663C19.3311 8.15271 19.1391 7.91853 18.8927 7.75369C18.6462 7.58885 18.3565 7.50074 18.06 7.50048H13.19L8.23999 2.59048C8.05425 2.40453 7.83367 2.25701 7.59087 2.15636C7.34808 2.05571 7.08782 2.00391 6.82499 2.00391C6.56216 2.00391 6.30191 2.05571 6.05911 2.15636C5.81631 2.25701 5.59574 2.40453 5.40999 2.59048L2.58999 5.41048C2.40404 5.59623 2.25652 5.8168 2.15587 6.0596C2.05522 6.3024 2.00342 6.56265 2.00342 6.82548C2.00342 7.08831 2.05522 7.34856 2.15587 7.59136C2.25652 7.83416 2.40404 8.05473 2.58999 8.24048L7.58999 13.1905V18.0605C7.59025 18.357 7.67837 18.6467 7.84321 18.8931C8.00805 19.1396 8.24222 19.3316 8.51614 19.4451C8.79007 19.5585 9.09147 19.5882 9.38226 19.5304C9.67306 19.4726 9.94022 19.33 10.15 19.1205L13.94 15.3305L19 20.4905C19.1976 20.6881 19.4656 20.7991 19.745 20.7991C20.0244 20.7991 20.2924 20.6881 20.49 20.4905C20.6876 20.2929 20.7986 20.0249 20.7986 19.7455C20.7986 19.4661 20.6876 19.1981 20.49 19.0005Z" fill="black" />
</svg>
