<svg width="24" height="24" viewBox="0 0 24 24" fill="none" xmlns="http://www.w3.org/2000/svg">
<path fill-rule="evenodd" clip-rule="evenodd" d="M10.0488 20.5C10.0488 20.7761 10.2727 21 10.5488 21H18C19.6569 21 21 19.6569 21 18V16.5237C21 16.2475 20.7761 16.0237 20.5 16.0237H10.5488C10.2727 16.0237 10.0488 16.2475 10.0488 16.5237V20.5ZM10.5488 14.0237C10.2727 14.0237 10.0488 13.7998 10.0488 13.5237V10.4763C10.0488 10.2002 10.2727 9.97632 10.5488 9.97632H20.5C20.7761 9.97632 21 10.2002 21 10.4763V13.5237C21 13.7998 20.7761 14.0237 20.5 14.0237H10.5488ZM8.04883 13.5237C8.04883 13.7998 7.82497 14.0237 7.54883 14.0237H3.5C3.22386 14.0237 3 13.7998 3 13.5237V10.4763C3 10.2002 3.22386 9.97632 3.5 9.97632H7.54883C7.82497 9.97632 8.04883 10.2002 8.04883 10.4763V13.5237ZM3 16.5237C3 16.2475 3.22386 16.0237 3.5 16.0237H7.54883C7.82497 16.0237 8.04883 16.2475 8.04883 16.5237V20.5C8.04883 20.7761 7.82497 21 7.54883 21H6C4.34315 21 3 19.6569 3 18V16.5237ZM10.0488 7.47632C10.0488 7.75246 10.2727 7.97632 10.5488 7.97632H20.5C20.7761 7.97632 21 7.75246 21 7.47632V6C21 4.34315 19.6569 3 18 3H10.5488C10.2727 3 10.0488 3.22386 10.0488 3.5V7.47632ZM7.54883 3C7.82497 3 8.04883 3.22386 8.04883 3.5V7.47632C8.04883 7.75246 7.82497 7.97632 7.54883 7.97632H3.5C3.22386 7.97632 3 7.75246 3 7.47632V6C3 4.34315 4.34315 3 6 3H7.54883Z" fill="black"/>
</svg>
